<svg class="kw-icn" width="40" height="40" viewBox="0 0 40 40" preserveAspectRatio="xMidYMid meet" fill="none" xmlns="http://www.w3.org/2000/svg"><path class="kw-border" d="M0 20C0 8.96 8.96 0 20 0C31.04 0 40 8.96 40 20C40 31.04 31.04 40 20 40C8.96 40 0 31.04 0 20Z" fill="white"/>
    <path class="kw-shape" d="M3.2 20.2c0-9.384 7.616-17 17-17s17 7.616 17 17-7.616 17-17 17-17-7.616-17-17Z" fill="#fff"/><path class="kw-fill" d="M16.548 21.322h-2.711v-8.574h2.711v8.574Z" fill="#000"/><path class="kw-fill" fill-rule="evenodd" clip-rule="evenodd" d="M2.56 20c0 9.624 7.807 17.44 17.457 17.44 9.615 0 17.423-7.816 17.423-17.44 0-9.66-7.808-17.44-17.423-17.44C10.367 2.56 2.56 10.34 2.56 20Zm13.988 4.942v5.79h4.012V11.407l-2.204-2.314h-6.29l-2.242 2.279V30.73h4.012v-5.79h2.712Zm6.579-15.848V30.73h7.662v-3.366h-3.614V9.094h-4.048Z" fill="#000"/></svg>