<svg class="kw-icn" width="40" height="40" viewBox="0 0 40 40" preserveAspectRatio="xMidYMid meet" fill="none" xmlns="http://www.w3.org/2000/svg"><path class="kw-border" d="M0 20C0 8.96 8.96 0 20 0C31.04 0 40 8.96 40 20C40 31.04 31.04 40 20 40C8.96 40 0 31.04 0 20Z" fill="white"/>
    <path class="kw-shape" d="M3.2 20c0-9.274 7.526-16.8 16.8-16.8 9.274 0 16.8 7.526 16.8 16.8 0 9.274-7.526 16.8-16.8 16.8-9.274 0-16.8-7.526-16.8-16.8Z" fill="#fff"/><path class="kw-fill" d="M19.888 2.56C10.313 2.62 2.56 10.41 2.56 20c0 9.627 7.813 17.44 17.44 17.44 9.626 0 17.44-7.813 17.44-17.44 0-9.627-7.814-17.44-17.44-17.44h-.112Zm-3.346 3.131h.01a.92.92 0 0 1 .07 0l.018.002h.002l.002.001h.001c.38.026.305.254.254.558-.051.305-3.349 5.582-3.577 6.241-.229.66.2 4.423.507 4.835.247.333 5.153 2.692 5.262 2.372.108-.32-3.145-2.87-3.095-3.991.046-1.014.708-2.95 1.52-4.117.797-1.145 1.757-2.155 2.464-2.24h.04c.707.086 1.668 1.095 2.464 2.24.812 1.168 1.474 3.103 1.52 4.117.05 1.121-3.205 3.672-3.096 3.991.108.32 5.016-2.039 5.264-2.372.306-.412.735-4.175.506-4.835-.228-.66-3.526-5.936-3.577-6.24-.05-.305-.127-.533.254-.559h.001l.002-.001h.002l.019-.002c.397-.013 1.392.272 2.133.891.79.661 3.07 3.908 3.349 5.278.279 1.372-.64 5.74-1.497 6.546-.85.8-5.962 1.988-5.925 2.347.034.336 4.847-.215 5.786-.482.898-.255 3.21-1.789 3.59-2.398.295-.472 1.319-5.886 1.446-6.115.061-.11.13-.199.206-.207H32.476c.079-.002.167.083.268.31.203.456.862 1.598.888 3.044.025 1.448-.686 3.806-1.067 4.288-.4.508-4.11 2.208-4.795 2.385-.691.18-6.076.035-6.102.399-.026.362 3.73.845 4.808 1.15.904.254 3.466 1.909 3.858 2.561.456.761.887 4.01.456 4.771-.432.762-1.141 1.09-1.37.507-.228-.583-.761-4.237-.964-4.542-.203-.304-1.879-1.674-2.691-2.054-.812-.381-4.283-1.555-4.401-1.27-.094.228 3.292 2.296 3.792 3.096.508.813.964 2.867.914 3.806-.052.943-1.771 3.73-2.436 4.085-.71.381-1.213.306-1.116-.506.084-.71 1.344-3.224 1.42-3.782.072-.528-.01-2.419-.253-2.98-.25-.576-2.05-2.6-2.379-2.52-.247.06.146 2.164-.349 2.164-.492 0-.46-2.191-.958-2.208-.451.017-.463 2.208-.956 2.208-.495 0-.102-2.104-.35-2.164-.328-.08-2.129 1.944-2.378 2.52-.243.561-.325 2.452-.253 2.98.076.559 1.336 3.072 1.42 3.782.097.812-.405.887-1.116.506-.665-.356-2.384-3.142-2.435-4.085-.051-.94.405-2.993.913-3.805.5-.801 3.886-2.869 3.792-3.096-.118-.286-3.589.888-4.4 1.269-.813.38-2.489 1.75-2.692 2.054-.203.305-.736 3.959-.964 4.542-.229.584-.938.255-1.37-.507-.43-.761 0-4.01.456-4.771.392-.652 2.955-2.307 3.858-2.562 1.079-.304 4.834-.787 4.808-1.15-.026-.363-5.41-.218-6.102-.398-.685-.177-4.394-1.877-4.795-2.385-.38-.482-1.092-2.84-1.067-4.288.026-1.446.685-2.588.888-3.045.1-.226.19-.31.268-.309h.01c.076.008.144.097.205.207.127.229 1.151 5.643 1.446 6.116.38.608 2.692 2.142 3.59 2.397.939.267 5.752.818 5.786.482.037-.359-5.075-1.548-5.925-2.347-.856-.805-1.776-5.174-1.497-6.546.28-1.37 2.56-4.617 3.35-5.278.694-.58 1.613-.868 2.053-.891Z" fill="#000"/></svg>