<svg class="kw-icn" width="40" height="40" viewBox="0 0 40 40" preserveAspectRatio="xMidYMid meet" fill="none" xmlns="http://www.w3.org/2000/svg"><path class="kw-border" d="M0 20C0 8.96 8.96 0 20 0C31.04 0 40 8.96 40 20C40 31.04 31.04 40 20 40C8.96 40 0 31.04 0 20Z" fill="white"/>
    <path class="kw-shape" d="M3.2 20c0-9.274 7.526-16.8 16.8-16.8 9.274 0 16.8 7.526 16.8 16.8 0 9.274-7.526 16.8-16.8 16.8-9.274 0-16.8-7.526-16.8-16.8Z" fill="#fff"/><path class="kw-fill" fill-rule="evenodd" clip-rule="evenodd" d="M2.56 20.002c0 9.62 7.804 17.438 17.457 17.438 9.616 0 17.423-7.818 17.423-17.438 0-9.663-7.807-17.442-17.423-17.442-9.65 0-17.457 7.779-17.457 17.442Zm22.005 13.335v.003-.003Zm-1.122-12.59c3 2.133 2.276 9.657 1.122 12.59 4.698-1.266 8.746-6.226 8.999-9.88.181-2.306-.74-2.789-1.421-3.145-.408-.214-.73-.382-.674-.87.035-.329.299-.927.614-1.641.97-2.199 2.424-5.498-.795-5.414-3.12.053-2.404 2.892-1.875 4.99.164.65.31 1.228.319 1.63.03.646-.752.816-1.472.971-.166.036-.329.071-.478.111.004-.043.011-.099.02-.165.06-.48.188-1.52-.13-2.729-.18-.659-.783-.927-1.371-1.19-.701-.311-1.381-.614-1.303-1.56.037-.444.326-1.124.654-1.896.927-2.182 2.161-5.09-1.123-5.412-3.557-.351-2.66 2.52-1.917 4.901.323 1.032.616 1.972.507 2.52-.068.407-.434.517-.902.657-.28.084-.596.179-.906.354-.49-1.659-1.618-1.903-2.518-2.098-.69-.15-1.245-.27-1.277-.977-.018-.408.139-1.04.316-1.755.53-2.143 1.246-5.031-1.978-4.869-3.639.199-1.945 3.52-.895 5.58.306.6.557 1.092.606 1.37.092.518-.305.702-.84.95-.736.34-1.733.803-2.09 2.414-.07.397.039 1.88.109 2.497-.24.05-.557.227-.874.402-.583.324-1.164.647-1.258.178-.11-.484-.008-1.298.106-2.205.296-2.35.669-5.317-2.383-4.744-3.039.587-1.586 3.126-.382 5.23.5.874.958 1.673 1.032 2.225.063.473-.26.638-.679.852-.8.409-1.951.997-1.453 4.247.687 4.308 6.433 8.648 11.64 9.011.083-.247.193-.525.315-.833.68-1.717 1.712-4.325.118-7.27-.985-1.826-.358-2.693.106-3.335.217-.3.398-.55.363-.826-.016-.148-.423-.251-.991-.395-.678-.172-1.586-.402-2.334-.835-1.373-.796-1.41-3.507.289-4.558 2.313-1.411 3.577 2.46 4.156 4.522.108.387.355.298.731.163.505-.182 1.245-.448 2.197.236Zm-2.516 11.55c-.28.572-.559 1.141-.808 1.585.83 0 1.988-.036 2.782-.18.146-1.484.218-4.016-.396-3.944-.348.022-.967 1.29-1.578 2.538Z" fill="#000"/></svg>