<svg class="kw-icn" width="40" height="40" viewBox="0 0 40 40" preserveAspectRatio="xMidYMid meet" fill="none" xmlns="http://www.w3.org/2000/svg"><path class="kw-border" d="M0 20C0 8.96 8.96 0 20 0C31.04 0 40 8.96 40 20C40 31.04 31.04 40 20 40C8.96 40 0 31.04 0 20Z" fill="white"/>
    <path class="kw-shape" d="M3.2 20c0-9.274 7.526-16.8 16.8-16.8 9.274 0 16.8 7.526 16.8 16.8 0 9.274-7.526 16.8-16.8 16.8-9.274 0-16.8-7.526-16.8-16.8Z" fill="#fff"/><path class="kw-fill" d="M14.714 22.891c-1.447-.216-.288-1.159 1.12-.906 2.063.399 2.716 1.811 2.245 2.534-.245.357-.752-.037-1.385-.528-.587-.456-1.283-.996-1.98-1.1ZM17.39 19.85c-1.735-.506-1.373-1.228.327-1.157 2.822.145 4.053 2.063 3.473 2.931-.318.48-.881.054-1.632-.515-.609-.461-1.34-1.016-2.167-1.26ZM20.178 16.739c-1.375-.578-.94-1.083.435-.975h-.002c2.57.216 3.22 1.664 2.75 2.388-.303.441-.996-.03-1.798-.578-.444-.303-.921-.628-1.385-.835Z" fill="#000"/><path class="kw-fill" fill-rule="evenodd" clip-rule="evenodd" d="M2.56 19.998c0 9.624 7.807 17.442 17.458 17.442 9.615 0 17.422-7.818 17.422-17.441 0-9.66-7.807-17.439-17.422-17.439-9.648 0-17.458 7.776-17.458 17.439Zm24.202-5.609c0-.69.797-1.52 1.232-1.52l-.006-.003c.26.011.746.2 1.31.419 1.167.452 2.664 1.033 3.176.447 1.197-1.371-6.585-7.669-7.85-6.545-.53.464.126 1.763.668 2.837.346.685.646 1.279.561 1.504-.218.615-.795 1.087-1.373 1.087-.285 0-1.208-.5-2.297-1.09-1.812-.981-4.085-2.212-4.65-1.807-.514.377.137 1.497.776 2.596.53.913 1.052 1.812.889 2.255-.202.513-1.712 2.158-3.243 3.826-1.492 1.626-3.005 3.274-3.345 3.916-.447.855-.357 1.412-.282 1.87.058.358.106.656-.116.99-.468.652-.505 1.663.145 2.46-1.663 1.954-2.567 3.907-2.35 4.124.181.217 1.953-1.047 3.763-3.256.797.542 1.737.327 2.316-.217.206-.193.46-.124.782-.036.525.143 1.234.337 2.22-.471.917-.784 2.517-2.733 3.994-4.533 1.325-1.614 2.551-3.108 3.098-3.535.605-.476 1.736.12 2.81.686 1.05.554 2.045 1.08 2.44.542.632-.859-1.347-2.86-2.922-4.454-.946-.957-1.746-1.766-1.746-2.092Z" fill="#000"/></svg>