<svg class="kw-icn" width="40" height="40" viewBox="0 0 40 40" preserveAspectRatio="xMidYMid meet" fill="none" xmlns="http://www.w3.org/2000/svg"><path class="kw-border" d="M0 20C0 8.96 8.96 0 20 0C31.04 0 40 8.96 40 20C40 31.04 31.04 40 20 40C8.96 40 0 31.04 0 20Z" fill="white"/>
    <path class="kw-shape" d="M3.2 20c0-9.274 7.526-16.8 16.8-16.8 9.274 0 16.8 7.526 16.8 16.8 0 9.274-7.526 16.8-16.8 16.8-9.274 0-16.8-7.526-16.8-16.8Z" fill="#fff"/><path class="kw-fill" d="M19.888 2.56C10.312 2.62 2.56 10.41 2.56 20c0 9.627 7.812 17.44 17.44 17.44 9.626 0 17.44-7.813 17.44-17.44 0-9.627-7.814-17.44-17.44-17.44h-.112Zm2.618 3.253h.014c.488-.014.756.426.802 1.07.077 1.102.221 5.58.221 5.58s4.953-.74 6.837-.998c1.884-.259 2.216 1.59 1.551 2.365-.534.623-4.471 5.949-4.471 5.949s4.545 2.328 5.395 2.734c.85.406.924 1.514.148 2.068-.542.387-4.84 2.773-4.84 2.773s.48 3.806.554 4.619c.074.812-.259 1.144-.924.922-.665-.222-3.659-1.33-4.176-1.477-.517-.148-.221-.924.26-.813.469.108 3.158.392 3.25.371l.001-.002s-.666-3.843-.555-4.25c.111-.405 3.807-2.844 3.807-2.844s-4.878-3.4-4.952-3.88c-.074-.48 3.695-5.986 3.695-5.986s-6.502.185-6.798-.036c-.295-.222-.962-4.915-.962-4.915s-2.302 1.607-2.956 2.07c-.654.464-1.142 1.006-2.114.258-.973-.748-2.615-2.18-2.615-2.18s-.449 2.616-.591 3.695c-.071.539-.96.806-.965-.539-.005-1.343.005-4.428.005-4.78 0-.574.452-1.443 1.579-.515 1.127.929 3.52 3.21 3.52 3.21s2.789-2.613 4.063-3.79c.495-.458.901-.663 1.217-.679Zm-5.913 7.607h.025c.69-.008 1.276.196 1.641.52.874.776 1.55 1.99-.1 3.759-.75-.654-1.579-1.23-2.385-1.796-.705-.435-1.46-.81-2.249-1.072l.043-.04c.998-.957 2.086-1.347 3-1.37l.025-.001Zm-5.358 2.28h.072c1.537-.002 3.091.766 4.403 1.677 2.18 1.515 4.212 3.584 3.326 4.84-.887 1.257-3.991.112-5.358-.664-1.367-.776-2.365-2.145-2.771-2.33-.406-.184-.923.888-.886 1.48.036.59 1.735 2.18 3.878 2.808-.073 2.512 2.18 3.731 4.213 3.14-1.442 2.66.11 4.213 1.81 4.25-1.663 2.217-4.99 1.523-5.985.96-.996-.564-2.66-2.475-1.736-5.098-.296.147-3.88.7-5.358-1.627-1.478-2.328-.613-6.266 1.515-8.24.902-.837 1.884-1.18 2.877-1.196Zm10.002 1.657h.057c.747-.008 1.389.34 1.954 1.054 1.374 1.736-.332 3.88-1.995 5.174-1.626 1.265-3.917 2.734-5.395 1.108a2.308 2.308 0 0 1-.575-1.075c1.301.422 2.798.658 4.061.011 1.215-.722 1.527-2.525.716-3.663a7.558 7.558 0 0 0-1.21-1.614c.9-.634 1.69-.97 2.387-.995Zm2.318 6.502h.023c.719-.02 1.312.375 1.666.982.517.886.295 2.18-1.22 3.399-1.515 1.22-3.635 1.961-4.581.37-.813-1.368 1.865-3.77 3.066-4.434.366-.203.72-.304 1.046-.317Z" fill="#000"/></svg>