<svg class="kw-icn" width="40" height="40" viewBox="0 0 40 40" preserveAspectRatio="xMidYMid meet" fill="none" xmlns="http://www.w3.org/2000/svg"><path class="kw-border" d="M0 20C0 8.96 8.96 0 20 0C31.04 0 40 8.96 40 20C40 31.04 31.04 40 20 40C8.96 40 0 31.04 0 20Z" fill="white"/>
    <path class="kw-shape" d="M3.2 20c0-9.274 7.526-16.8 16.8-16.8 9.274 0 16.8 7.526 16.8 16.8 0 9.274-7.526 16.8-16.8 16.8-9.274 0-16.8-7.526-16.8-16.8Z" fill="#fff"/><path class="kw-fill" d="M19.888 2.56C10.313 2.62 2.56 10.41 2.56 20c0 9.627 7.813 17.44 17.44 17.44 9.627 0 17.44-7.813 17.44-17.44 0-9.627-7.813-17.44-17.44-17.44h-.112Zm-6.467 5.83c1.382-.01 1.533 1.201 1.868 1.906.353.742.482 1.243.872 1.243.297 0 1.631-1.324 2.225-1.335.501-.01 1.508.988 2.076 1.574.726.749.527 1.107.133.95-.378-.152-1.725-1.156-2.265-1.133-.426.018-2.223 2.265-2.912 2.04-.845-.274-1.113-2.912-1.911-3.209-.798-.297-1.966 1.356-2.764 1.337-.79-.018-1.108-1.403-.816-1.912.518-.904 1.66-1.294 3.265-1.447.063-.006.122-.01.18-.012l.05-.002Zm14.67.188h.055c.826-.003 1.683.285 2.44 1.006 2.69 2.561.052 7.347-1.627 9.236-.937 1.054-2.413 1.52-2.466 2.308-.052.787 1.13 1.003 1.365 1.941.21.84-1.102 2.624-1.365 4.408-.187 1.273 1.05 5.563.262 5.878-.787.315-2.571-4.776-3.516-4.566-.944.21-.157 5.825-.892 6.088-.734.262-1.732-2.099-2.256-6.244-.525-4.146.63-6.456 1.574-7.19.713-.555 2.204-.053 2.624-1.155.309-.81-1.825-1.256-1.053-3.708.062.204 1.486 2.083 2.942 2.187 1.47.105 2.68-1.93 2.728-3.41.053-1.627-.68-3.832-4.25-4.566.443-1.124 1.879-2.181 3.434-2.213Zm-6.014 5.93h.015c.476-.017.578.45-.06.708-1.106.45-3.847 1.432-3.987 1.61-.392.497-.71 5.145-1.574 5.51-1.304.55-4.147-2.677-4.724-2.415-.578.262-.887 5.12-2.102 6.406-.754.798-2.463 1.257-3.16-.248-.713-1.538.566-2.407 1.324-2.649 1.44-.46 1.424-6.044 2.73-6.448 1.412-.436 4.611 3.311 5.144 2.992.555-.334.945-3.88 1.439-4.284.432-.354 4.286-1.064 4.848-1.167a.91.91 0 0 1 .107-.015Zm1.159 2.055h.003a.166.166 0 0 0-.003.012l-.002-.004v-.003l.002-.003v-.002Z" fill="#000"/></svg>