<svg class="kw-icn" width="40" height="40" viewBox="0 0 40 40" preserveAspectRatio="xMidYMid meet" fill="none" xmlns="http://www.w3.org/2000/svg"><path class="kw-border" d="M0 20C0 8.96 8.96 0 20 0C31.04 0 40 8.96 40 20C40 31.04 31.04 40 20 40C8.96 40 0 31.04 0 20Z" fill="white"/>
    <path class="kw-shape" d="M3.2 20c0-9.274 7.526-16.8 16.8-16.8 9.274 0 16.8 7.526 16.8 16.8 0 9.274-7.526 16.8-16.8 16.8-9.274 0-16.8-7.526-16.8-16.8Z" fill="#fff"/>
    <path class="kw-fill" d="M25.203 22.674h-3.677l3.677-9.083v9.083Z" fill="#000"/><path class="kw-fill" fill-rule="evenodd" clip-rule="evenodd" d="M10.31 5.5A17.44 17.44 0 1 1 29.69 34.5 17.44 17.44 0 0 1 10.31 5.5Zm.97 7.117v18.196l4.258.014V9.217h-2.906a1.57 1.57 0 0 0-.77.116l-3.314 1.162v2.122h2.732Zm13.938 18.196h4.185l-.014-4.535h1.308v-3.56h-1.323V9.202h-5.523a.727.727 0 0 0-.726.508L18.11 22.398c-.11.242-.165.505-.16.77v3.11h7.267v4.535Z" fill="#000"/></svg>