<svg class="kw-icn" width="40" height="40" viewBox="0 0 40 40" preserveAspectRatio="xMidYMid meet" fill="none" xmlns="http://www.w3.org/2000/svg">
    <path class="kw-border" d="M0 20C0 8.96 8.96 0 20 0C31.04 0 40 8.96 40 20C40 31.04 31.04 40 20 40C8.96 40 0 31.04 0 20Z" fill="white"/>
    <path class="kw-shape" d="M3.2 20c0-9.274 7.526-16.8 16.8-16.8 9.274 0 16.8 7.526 16.8 16.8 0 9.274-7.526 16.8-16.8 16.8-9.274 0-16.8-7.526-16.8-16.8Z" fill="#fff"/><path class="kw-fill" d="M2.56 19.964a17.44 17.44 0 1 1 0 .072v-.072Zm12.987 10.822V9.142H12.66c-.26-.02-.52.022-.762.12l-3.327 1.162v2.125h2.726v18.237h4.249Zm5.852 0h6.173a1.028 1.028 0 0 0 .801-.32l1.604-1.604a1.026 1.026 0 0 0 .32-.801v-6.173a.983.983 0 0 0-.32-.802l-1.524-1.483 1.524-1.483a.981.981 0 0 0 .32-.802v-5.41a1.203 1.203 0 0 0-.32-.802l-1.604-1.644a.98.98 0 0 0-.801-.32h-6.213a.982.982 0 0 0-.802.32l-1.563 1.684a1.106 1.106 0 0 0-.32.761v5.451a.981.981 0 0 0 .32.802l1.523 1.483-1.523 1.483a.983.983 0 0 0-.32.802v6.173a.981.981 0 0 0 .32.801l1.603 1.564c.219.202.504.316.802.32Zm1.523-17.957h3.127v5.01h-3.127v-5.01Zm0 8.618h3.167v5.692h-3.167v-5.692Z" fill="#000"/></svg>