<svg class="kw-icn" width="40" height="40" viewBox="0 0 40 40" preserveAspectRatio="xMidYMid meet" fill="none" xmlns="http://www.w3.org/2000/svg">
    <path class="kw-border" d="M0 20C0 8.96 8.96 0 20 0C31.04 0 40 8.96 40 20C40 31.04 31.04 40 20 40C8.96 40 0 31.04 0 20Z" fill="white"/>
    <path class="kw-shape" d="M3.2 20c0-9.274 7.526-16.8 16.8-16.8 9.274 0 16.8 7.526 16.8 16.8 0 9.274-7.526 16.8-16.8 16.8-9.274 0-16.8-7.526-16.8-16.8Z" fill="#fff"/><path class="kw-fill" d="M18.391 12.888h3.145v5.68H18.39v-5.68Z" fill="#000"/><path class="kw-fill" fill-rule="evenodd" clip-rule="evenodd" d="M37.44 20c0-9.623-7.807-17.44-17.458-17.44C10.368 2.56 2.56 10.377 2.56 20c0 9.66 7.808 17.44 17.422 17.44 9.65 0 17.458-7.78 17.458-17.44ZM23.56 9.269h-7.12l-2.241 2.207v8.503l2.276 2.208h3.76l1.3-1.23v6.222h-3.107v-2.748h-4.23v4.123l2.242 2.282h7.156l2.205-2.282V11.513L23.56 9.269Z" fill="#000"/></svg>