<svg class="kw-icn" width="40" height="40" viewBox="0 0 40 40" preserveAspectRatio="xMidYMid meet" fill="none" xmlns="http://www.w3.org/2000/svg">
    <path class="kw-border" d="M0 20C0 8.96 8.96 0 20 0C31.04 0 40 8.96 40 20C40 31.04 31.04 40 20 40C8.96 40 0 31.04 0 20Z" fill="white"/>
    <path class="kw-shape" d="M3.2 20c0-9.274 7.526-16.8 16.8-16.8 9.274 0 16.8 7.526 16.8 16.8 0 9.274-7.526 16.8-16.8 16.8-9.274 0-16.8-7.526-16.8-16.8Z" fill="#fff"/><path class="kw-fill" fill-rule="evenodd" clip-rule="evenodd" d="M2.56 20c0 9.625 7.807 17.44 17.458 17.44 9.614 0 17.422-7.815 17.422-17.44 0-9.66-7.808-17.44-17.422-17.44C10.368 2.56 2.56 10.34 2.56 20Zm8.601-7.469v18.235h4.23v-21.6h-3.325L8.45 10.432v2.098h2.71Zm11.495 14.437v-1.846l7.41-6.187v-7.49l-2.24-2.28h-7.194l-2.24 2.245v4.305h4.3v-2.858h3.11v4.16l-7.41 6.153v7.596h11.602v-3.798h-7.338Z" fill="#000"/></svg>