<svg class="kw-icn" width="40" height="40" viewBox="0 0 40 40" preserveAspectRatio="xMidYMid meet" fill="none" xmlns="http://www.w3.org/2000/svg">
    <path class="kw-border" d="M0 20C0 8.96 8.96 0 20 0C31.04 0 40 8.96 40 20C40 31.04 31.04 40 20 40C8.96 40 0 31.04 0 20Z" fill="white"/>
    <path class="kw-shape" d="M3.2 20.2c0-9.384 7.616-17 17-17s17 7.616 17 17-7.616 17-17 17-17-7.616-17-17Z" fill="#fff"/><path class="kw-fill" d="M2.56 20c0-9.68 7.8-17.44 17.44-17.44 9.6 0 17.44 7.76 17.44 17.44 0 9.64-7.84 17.44-17.44 17.44-9.64 0-17.44-7.8-17.44-17.44Zm14.36 10.8h6.16c.32 0 .56-.08.8-.32l1.6-1.6c.24-.24.32-.48.32-.8v-7.52c0-.32-.08-.6-.32-.8l-1.64-1.56c-.24-.2-.44-.32-.76-.32H20.2c-.32 0-.52.08-.76.32l-1 .88v-6.2h3.12v2.76h4.24v-3.68c0-.32-.12-.56-.32-.8l-1.6-1.64c-.2-.24-.48-.32-.8-.32h-6.2c-.32 0-.6.08-.8.32l-1.56 1.64c-.2.24-.32.44-.32.76v16.12c0 .32.12.56.32.8l1.6 1.64c.2.24.48.32.8.32Zm1.52-9.32h3.16v5.68h-3.16v-5.68Z" fill="#000"/></svg>