<svg class="kw-icn" width="40" height="40" viewBox="0 0 40 40" preserveAspectRatio="xMidYMid meet" fill="none" xmlns="http://www.w3.org/2000/svg">
    <path class="kw-border" d="M0 20C0 8.96 8.96 0 20 0C31.04 0 40 8.96 40 20C40 31.04 31.04 40 20 40C8.96 40 0 31.04 0 20Z" fill="white"/>
    <path class="kw-shape" d="M3.2 20c0-9.274 7.526-16.8 16.8-16.8 9.274 0 16.8 7.526 16.8 16.8 0 9.274-7.526 16.8-16.8 16.8-9.274 0-16.8-7.526-16.8-16.8Z" fill="#fff"/><path class="kw-fill" d="M25.657 27.112H22.51v-5.68h3.146v5.68Z" fill="#000"/><path class="kw-fill" fill-rule="evenodd" clip-rule="evenodd" d="M2.56 20c0 9.624 7.807 17.44 17.457 17.44 9.615 0 17.423-7.816 17.423-17.44 0-9.661-7.808-17.44-17.423-17.44C10.367 2.56 2.56 10.339 2.56 20Zm8.421-7.47v18.237h4.23V9.164h-3.29l-3.65 1.268v2.099h2.71Zm9.506 18.237h7.12l2.242-2.206v-8.54l-2.241-2.209h-3.794L22.51 19.08v-6.26h3.11v2.749h4.228v-4.124l-2.241-2.281h-7.156l-2.205 2.318v17.043l2.24 2.242Z" fill="#000"/></svg>