<svg class="kw-icn" width="40" height="40" viewBox="0 0 40 40" preserveAspectRatio="xMidYMid meet" fill="none" xmlns="http://www.w3.org/2000/svg"><path class="kw-border" d="M0 20C0 8.96 8.96 0 20 0C31.04 0 40 8.96 40 20C40 31.04 31.04 40 20 40C8.96 40 0 31.04 0 20Z" fill="white"/>
    <path class="kw-shape" d="M3.2 20c0-9.274 7.526-16.8 16.8-16.8 9.274 0 16.8 7.526 16.8 16.8 0 9.274-7.526 16.8-16.8 16.8-9.274 0-16.8-7.526-16.8-16.8Z" fill="#fff"/><path class="kw-fill" fill-rule="evenodd" clip-rule="evenodd" d="M2.56 20.002c0 9.62 7.804 17.438 17.458 17.438 9.615 0 17.422-7.815 17.422-17.438 0-9.663-7.807-17.442-17.422-17.442-9.65 0-17.458 7.779-17.458 17.442Zm4.234-1.791c.18.182.506.325.724.144.289-.215.323-1.302.07-1.918-.397-.868-1.373-.541-1.3.507-.47-.362-1.192.471-.795 1.23-.506-.362-1.085.616-.506 1.376.362.434.868.399 1.011.217.108-.18.146-.543-.035-.869.217.29.505.29.723.146.144-.11.216-.508.108-.833Zm1.591 9.804c2.061 3.255 3.361 4.161 4.302 3.944v.002c1.047-.252 1.23-1.665.724-2.424-.451-.685-.963-.734-1.543-.79-.768-.072-1.657-.157-2.686-1.745-1.003-1.504-.127-2.97.663-4.292.522-.872 1.006-1.682.89-2.401-.216-1.555-1.59-1.7-2.819-1.195-1.12.472-2.132 1.667-2.024 3.004.108 1.411.507 2.822 2.493 5.897Zm-.18-12.808c-.11.941.397 2.823.903 2.895.651.072 1.627-2.063 1.157-3.184-.505-1.122-1.952-.87-2.06.289Zm4.663 9.084c-.324.974.616 1.88 1.087 1.336.034 1.266 1.19 1.482 1.517.326.217-.833.073-2.244-.326-2.46-.253-.145-.615.107-.795.397.072-.434-.036-.905-.253-1.013-.216-.145-.542-.072-.795.29.181-.435.073-.867-.108-1.05-.182-.144-.76-.071-1.086.545-.54 1.084.183 2.17.76 1.629Zm4.332-6.112c-.955-1.116-2.014-2.353-1.511-4.346v.001c.664-2.53 1.493-2.963 2.186-3.326.477-.25.89-.465 1.14-1.305.325-1.013-.037-2.388-1.484-2.57-1.013-.144-2.313 2.024-3.506 6.187-1.193 4.053-1.412 5.572-1.084 7.092.29 1.448 2.06 2.714 3.326 2.821 1.374.145 2.386-.579 2.206-2.352-.072-.8-.65-1.475-1.273-2.202Zm-.209 5.459c-.543.072-1.013 2.497-.833 3.581.253 1.376 1.88 1.63 2.35.362.47-1.339-.794-4.015-1.517-3.943Zm4.519-3.257c-.182 1.774.867 2.497 2.242 2.352l-.001-.001c1.265-.107 3.035-1.373 3.325-2.822.29-1.52.072-3.039-1.084-7.09C24.8 8.657 23.5 6.488 22.45 6.632c-1.447.18-1.738 1.556-1.447 2.569.25.84.657 1.055 1.126 1.304.683.363 1.5.796 2.164 3.327.528 2.005-.538 3.245-1.502 4.366-.62.72-1.196 1.39-1.281 2.182Zm1.483 3.257c-.724-.073-1.954 2.604-1.483 3.943.47 1.267 2.06 1.014 2.311-.362.22-1.083-.251-3.51-.828-3.581Zm3.035 1.99c.472.544 1.447-.362 1.085-1.336.577.54 1.301-.546.758-1.629-.323-.616-.902-.689-1.047-.545-.216.183-.289.615-.145 1.05-.215-.361-.54-.435-.794-.29-.182.108-.326.58-.254 1.013-.183-.29-.543-.542-.76-.397-.397.216-.578 1.627-.36 2.46.325 1.156 1.517.94 1.517-.326Zm1.265 6.33c.937.218 2.24-.687 4.338-3.943l.002-.002c1.95-3.073 2.385-4.485 2.493-5.897.073-1.337-.939-2.532-2.06-3.004-1.23-.504-2.53-.36-2.782 1.195-.116.721.365 1.534.883 2.409.782 1.32 1.648 2.783.67 4.284-1.051 1.588-1.949 1.673-2.72 1.746-.584.055-1.096.104-1.548.79-.505.758-.287 2.171.724 2.423Zm2.457-17.04c-.506 1.121.469 3.256 1.158 3.184.467-.071.974-1.953.869-2.895-.146-1.158-1.558-1.41-2.027-.289Zm4.267 3.98c-.18.326-.145.688 0 .868.146.182.65.217.976-.216.578-.76.038-1.738-.508-1.376.437-.76-.322-1.592-.793-1.23.108-1.049-.903-1.376-1.266-.507-.29.615-.252 1.702.073 1.918.217.18.505.037.686-.145-.072.325 0 .724.11.834.215.143.505.143.722-.146Z" fill="#000"/></svg>